# xmcd
#
# Track frame offsets:
#	150
#	9070
#	16459
#	27198
#	36914
#	44581
#	54805
#	63527
#	71555
#	82582
#	91347
#	99347
#	110187
#	120114
#	127891
#	139326
#	151673
#	159305
#
# Disc length: 2280 seconds
#
# Revision: 1
# Processed by: cddbd v1.5.1PL2 Copyright (c) Steve Scherf et al.
# Submitted via: audiograbber 1.83.01
#
DISCID=d108e612
DTITLE=Los Hermanos Toledo - Como Se Baila en Santiago
DYEAR=2005
DGENRE=Folklore
TTITLE0=Achalay Tierra Mojada (Chacarera)
TTITLE1=Gatito del Regreso (Gato)
TTITLE2=Escondido del Cachilo (Escondido)
TTITLE3=La Olvidada (Chacarera)
TTITLE4=Don Fermin (Gato)
TTITLE5=Para el Tiempo del Mistral (Escondido)
TTITLE6=De Fiesta en Fiesta (Chacarera)
TTITLE7=El Fatigao (Gato)
TTITLE8=Escondido de Reza Baile (Escondido)
TTITLE9=Lamento del Crespin (Chacarera)
TTITLE10=Gatito de un Ardileño (Gato)
TTITLE11=Escondido de los Bombos (Escondido)
TTITLE12=La Juguetona (Chacarera)
TTITLE13=Paraje Los Quiroga (Gato)
TTITLE14=De Mi Flor (Escondido)
TTITLE15=Fiesta Linda (Cacarera Doble)
TTITLE16=Cantorcito y Presumido (Gato)
TTITLE17=Huaico Hondo (Escondido)
EXTD=Chacareras, Gatos y Escondidos: danzas folkloricas argentinas
EXTT0=
EXTT1=
EXTT2=
EXTT3=
EXTT4=
EXTT5=
EXTT6=
EXTT7=
EXTT8=
EXTT9=
EXTT10=
EXTT11=
EXTT12=
EXTT13=
EXTT14=
EXTT15=
EXTT16=
EXTT17=
PLAYORDER=
